<svg width="33" height="23" viewBox="0 0 33 23" fill="none" xmlns="http://www.w3.org/2000/svg">
<path d="M30.4412 0H2.02941C1.49118 0 0.974989 0.213812 0.594401 0.594401C0.213812 0.97499 0 1.49118 0 2.02941L0 20.9706C0 21.5088 0.213812 22.025 0.594401 22.4056C0.974989 22.7862 1.49118 23 2.02941 23H30.4412C30.9794 23 31.4956 22.7862 31.8762 22.4056C32.2568 22.025 32.4706 21.5088 32.4706 20.9706V2.02941C32.4706 1.49118 32.2568 0.97499 31.8762 0.594401C31.4956 0.213812 30.9794 0 30.4412 0ZM30.0082 1.35294L16.2353 12.0006L2.46235 1.35294H30.0082ZM1.35294 20.6932V2.20529L11.7774 10.2621L1.35294 20.6932ZM2.30676 21.6471L12.8529 11.1009L15.8159 13.3941C15.9342 13.4852 16.0793 13.5346 16.2285 13.5346C16.3778 13.5346 16.5229 13.4852 16.6412 13.3941L19.6176 11.1009L30.1638 21.6471H2.30676ZM31.1176 20.6932L20.6932 10.2621L31.1176 2.20529V20.6932Z" fill="#FFEFCE"/>
</svg>
