<svg width="104" height="104" viewBox="0 0 104 104" fill="none" xmlns="http://www.w3.org/2000/svg">
<path d="M52 0C23.4 0 0 23.4 0 52C0 80.6 23.4 104 52 104C80.6 104 104 80.6 104 52C104 23.4 80.6 0 52 0ZM52 17.3333C61.5333 17.3333 69.3333 26.8667 69.3333 39C69.3333 51.1333 61.5333 60.6667 52 60.6667C42.4667 60.6667 34.6667 51.1333 34.6667 39C34.6667 26.8667 42.4667 17.3333 52 17.3333ZM80.6 84.5C73.2333 91 62.8333 95.3333 52 95.3333C41.1667 95.3333 30.7667 91 23.4 84.5C21.6667 82.7667 21.2333 80.1667 22.9667 78.4333C27.7333 72.8 34.2333 68.9 41.1667 66.7333C44.6333 68.4667 48.1 69.3333 52 69.3333C55.9 69.3333 59.3667 68.4667 62.8333 66.7333C70.2 68.9 76.2667 72.8 81.0333 78.4333C82.7667 80.1667 82.7667 82.7667 80.6 84.5Z" fill="#500000"/>
</svg>
