<svg width="270" height="194" viewBox="0 0 270 194" fill="none" xmlns="http://www.w3.org/2000/svg">
<path d="M269.25 0.041687H0.75V193.958H269.25V0.041687Z" fill="#FF6E6E"/>
<path fill-rule="evenodd" clip-rule="evenodd" d="M0.75 193.958L97.7083 97L135 134.292L217.042 52.25L269.25 104.458V193.958H0.75ZM138.729 44.7917C142.417 44.7917 146.022 45.8852 149.088 47.9341C152.155 49.9829 154.544 52.895 155.956 56.3021C157.367 59.7091 157.736 63.4582 157.017 67.0751C156.297 70.6921 154.521 74.0144 151.914 76.6221C149.306 79.2298 145.984 81.0056 142.367 81.7251C138.75 82.4445 135.001 82.0753 131.594 80.664C128.187 79.2528 125.275 76.8629 123.226 73.7966C121.177 70.7303 120.083 67.1253 120.083 63.4375C120.083 58.4923 122.048 53.7497 125.545 50.2529C129.041 46.7562 133.784 44.7917 138.729 44.7917Z" fill="#0C0058"/>
</svg>
