<svg width="512" height="512" viewBox="0 0 512 512" fill="none" xmlns="http://www.w3.org/2000/svg">
<g clip-path="url(#clip0_369_383)">
<path d="M331.8 224.1C360.09 224.1 386.68 235.09 406.66 255.07L426.25 274.66C466.26 256.92 497.5 221.36 507.87 178.01C513.595 154.09 513.21 130.93 508.085 109.61C505.472 98.73 491.655 95.1 483.745 103.006L414.845 171.906H339.245V97.2L408.145 28.3C416.057 20.388 412.42 6.57003 401.541 3.96003C380.221 -1.16497 357.061 -1.54996 333.141 4.17503C277.841 17.405 234.751 64.395 225.941 120.575C224.5 128.9 224.2 137 224.3 145L307.08 227.86C315.2 225.1 323.5 224.1 331.8 224.1ZM384 278.6C360.84 255.44 326.43 251.03 298.61 264.7L191.1 158V95.99L64 3.46346e-05L0 63.1L96 190.2L158.04 190.208L264.74 296.808C251.07 324.628 255.489 359.038 278.65 382.198L395.65 499.298C410.27 513.798 433.86 513.798 448.36 499.296L501.11 446.546C515.61 432.046 515.61 408.466 501.108 393.836L384 278.6ZM227.9 307L168.7 247.9L19.8 396.8C-6.57 423.17 -6.57 465.88 19.8 492.25C32.96 505.4 50.21 512 67.5 512C84.79 512 102.04 505.408 115.22 492.22L234.32 373.12C225.5 352.3 222.6 329.4 227.9 307ZM64 472C50.75 472 40 461.25 40 448C40 434.74 50.75 424 64 424C77.25 424 88 434.7 88 448C88 461.3 77.25 472 64 472Z" fill="#FFEFCE"/>
</g>
<defs>
<clipPath id="clip0_369_383">
<rect width="512" height="512" fill="white"/>
</clipPath>
</defs>
</svg>
