<svg xmlns="http://www.w3.org/2000/svg" version="1.1" xmlns:xlink="http://www.w3.org/1999/xlink" xmlns:svgjs="http://svgjs.dev/svgjs" width="2316" height="1438"><svg width="2316" height="1438" viewBox="0 0 2316 1438" fill="none" xmlns="http://www.w3.org/2000/svg">
<ellipse cx="1091" cy="719" rx="741" ry="719" fill="white"></ellipse>
<path fill-rule="evenodd" clip-rule="evenodd" d="M1228.91 376.786C1226.39 378.829 1220.38 383.572 1215.57 387.327C1210.76 391.083 1207.05 394.383 1207.33 394.661C1207.61 394.939 1208.66 394.342 1209.67 393.333C1210.68 392.325 1216.57 387.533 1222.76 382.685C1232.41 375.118 1234.98 372.86 1233.75 373.036C1233.61 373.055 1231.44 374.743 1228.91 376.786ZM845 428.924C838.675 434.901 833.735 440.035 834.021 440.333C834.308 440.632 839.707 435.729 846.019 429.438C852.331 423.147 857.271 418.013 856.997 418.028C856.724 418.044 851.325 422.947 845 428.924ZM961.273 460.939C966.873 468.606 971.609 474.724 971.797 474.536C972.193 474.141 952.235 447 951.548 447C951.297 447 955.673 453.273 961.273 460.939ZM860.587 510.166C861.089 511.083 864.495 515.163 868.156 519.233C873.032 524.655 878.782 529.313 889.656 536.651C906.027 547.698 907 548.317 907 547.675C907 547.431 899.772 542.37 890.938 536.427C882.104 530.485 873.482 524.02 871.777 522.061C864.322 513.493 859.741 508.624 860.587 510.166ZM1100.5 592.033C1081.03 596.127 1066.25 603.892 1052.14 617.435C1039.61 629.466 1031.49 642.772 1026.34 659.712C1023.97 667.528 1023.66 670.214 1023.59 684C1023.51 697.254 1023.83 700.722 1025.8 707.933C1033.09 734.61 1050.71 756.528 1075.26 769.474C1113.57 789.676 1161.09 782.756 1191.57 752.538C1203.34 740.868 1211.36 727.146 1216.21 710.395C1218.21 703.507 1218.49 700.332 1218.45 685.5C1218.41 669.625 1218.22 667.938 1215.6 660C1205.14 628.336 1183.15 605.791 1152.5 595.326C1136.44 589.843 1116.82 588.601 1100.5 592.033ZM793.261 595.257C785.429 597.511 779.205 599.538 779.429 599.762C779.833 600.167 809.122 592.119 809.917 591.385C810.971 590.411 806.425 591.468 793.261 595.257ZM757 660.32C757 660.535 763.943 665.146 772.428 670.567C780.914 675.987 787.638 680.777 787.369 681.211C787.101 681.645 787.359 682 787.941 682C789.767 682 789.097 680.107 786.75 678.634C785.513 677.857 779.304 673.861 772.952 669.754C760.949 661.992 757 659.657 757 660.32ZM1362.01 841.75C1364.95 843.813 1370.66 849.202 1374.68 853.728C1378.71 858.253 1382 861.623 1382 861.216C1382 859.745 1366.7 843.887 1362.47 840.98C1360.09 839.341 1357.81 838 1357.4 838C1356.99 838 1359.07 839.688 1362.01 841.75ZM944.474 860.533C958.414 873.937 965.736 881.655 965.2 882.38C964.744 882.996 962.833 885.525 960.955 888C959.076 890.475 958.226 891.958 959.067 891.295C959.908 890.632 962.034 888.088 963.792 885.64L966.988 881.19L945.907 860.845C934.312 849.655 924.397 840.344 923.873 840.153C923.348 839.963 932.619 849.133 944.474 860.533ZM1539.41 910.5C1539.41 919.3 1539.56 922.766 1539.74 918.203C1539.93 913.639 1539.93 906.439 1539.74 902.203C1539.55 897.966 1539.4 901.7 1539.41 910.5ZM1279.62 909.75C1282.75 914.013 1286.08 918.496 1287.02 919.712C1288.99 922.265 1302.86 934.016 1303.84 933.967C1304.2 933.948 1303.38 933.017 1302 931.897C1292.23 923.935 1287.9 919.528 1281.83 911.335C1278.02 906.201 1274.68 902 1274.41 902C1274.14 902 1276.49 905.487 1279.62 909.75ZM1393.71 944.5C1385.57 952.75 1378.72 959.846 1378.48 960.27C1378.24 960.693 1385.1 954.074 1393.73 945.56C1402.35 937.045 1409.21 929.949 1408.96 929.79C1408.71 929.63 1401.84 936.25 1393.71 944.5ZM1153.59 1039.67C1160.9 1050.01 1164.32 1054.38 1162.47 1051C1160.87 1048.08 1147.8 1029.99 1146.88 1029.42C1146.36 1029.1 1149.38 1033.72 1153.59 1039.67ZM950.417 1060.5C950.418 1070.95 950.566 1075.09 950.746 1069.7C950.926 1064.31 950.925 1055.76 950.744 1050.7C950.563 1045.64 950.416 1050.05 950.417 1060.5ZM1122.13 1061.63C1120.34 1068 1119.06 1073.39 1119.28 1073.61C1119.49 1073.83 1121.14 1068.8 1122.93 1062.43C1124.73 1056.07 1126.01 1050.68 1125.79 1050.46C1125.57 1050.23 1123.92 1055.26 1122.13 1061.63ZM1099.99 1120.79C1097.52 1125.53 1093.17 1133.15 1090.32 1137.71C1087.47 1142.27 1085.34 1146 1085.59 1146C1087.03 1146 1105.77 1113.44 1104.86 1112.53C1104.66 1112.32 1102.47 1116.04 1099.99 1120.79ZM958.496 1116C960.432 1122.5 969.456 1142 970.527 1142C970.801 1142 969.508 1138.96 967.655 1135.25C965.801 1131.54 963.044 1125.35 961.528 1121.5C958.704 1114.33 957.168 1111.54 958.496 1116ZM1074 1158.29C1067.61 1165.06 1065.3 1167.96 1068.09 1165.71C1070.62 1163.68 1074.9 1159.43 1077.6 1156.26C1088.61 1143.37 1087.49 1144 1074 1158.29ZM980.88 1156.76C983.254 1159.65 987.065 1163.61 989.348 1165.57C994.09 1169.64 1003.44 1176 1004.66 1176C1005.11 1176 1002.57 1174.1 999.015 1171.77C995.457 1169.45 988.95 1163.94 984.555 1159.52C978.556 1153.5 977.639 1152.81 980.88 1156.76ZM1046.01 1177.67C1042.37 1179.04 1035.55 1180.5 1030.51 1181L1021.5 1181.89L1030.5 1181.5C1038.81 1181.14 1047.81 1178.95 1052.73 1176.09C1055.57 1174.44 1052.99 1175.04 1046.01 1177.67Z" fill="#000926"></path>
<path fill-rule="evenodd" clip-rule="evenodd" d="M1057 332.364L1044.5 334.535L1035.71 366.018L1026.92 397.5L1027.9 406.5C1028.81 414.786 1033.82 430.423 1043.52 455.251L1044.98 459.002L1008.88 477.058C989.027 486.989 972.664 494.976 972.521 494.807C972.379 494.638 966.313 486.4 959.043 476.5C938.206 448.126 939.032 448.706 899.93 434.975C882.693 428.923 868.29 424.089 867.925 424.235C866.032 424.989 848.022 442.69 848.012 443.806C848.005 444.524 853.25 458.564 859.668 475.005C871.085 504.257 871.464 505.042 877.34 511.552C881.827 516.524 888.229 521.468 902.672 531.115C913.302 538.215 922 544.537 922 545.163C922 546.417 888.366 613.001 887.065 614.323C886.619 614.775 875.735 611.78 862.877 607.667C829.079 596.854 831.75 596.835 791.567 608.181C773.93 613.161 759.369 617.351 759.21 617.492C758.577 618.049 754.997 643.551 755.404 644.609C755.642 645.231 768.294 653.742 783.518 663.521C818.551 686.023 816.554 685.403 851.768 684.72C865.115 684.461 876.213 684.536 876.43 684.887C876.892 685.634 890 759.487 890 761.341C890 762.109 881.229 765.275 867.462 769.479C833.879 779.732 834.5 779.29 809.726 810.5C798.812 824.25 789.673 835.964 789.418 836.53C789.163 837.097 791.92 843.06 795.544 849.78L802.133 862L806.816 861.953C809.392 861.927 824.775 861.298 841 860.554L870.5 859.201L878 855.895C882.817 853.772 892.219 847.628 904.281 838.722C914.61 831.094 923.491 824.999 924.015 825.177C925.222 825.586 980.619 878.151 981.266 879.5C981.529 880.05 975.385 888.928 967.613 899.229C956.255 914.283 952.843 919.582 950.226 926.229L946.969 934.5L946.409 967L945.85 999.5L958.293 1005.38C965.136 1008.61 971.219 1011.09 971.81 1010.88C972.4 1010.67 984.385 1001.56 998.443 990.625C1031.87 964.633 1029.12 969.025 1044.67 916.75C1045.83 912.847 1046.49 912 1048.41 912C1051.14 912 1123.91 922.798 1125.75 923.476C1126.7 923.827 1127 929.619 1127.02 947.719C1127.03 967.605 1127.34 972.669 1128.89 978.637C1129.91 982.563 1131.1 986.388 1131.54 987.137C1133.54 990.548 1169.25 1041 1169.67 1041C1172.54 1041 1196.71 1036.69 1197.33 1036.07C1197.79 1035.61 1201.99 1021.57 1206.65 1004.87C1217.56 965.825 1217.58 967.496 1205.82 935.201C1201.14 922.353 1198.08 912.558 1198.6 912.089C1201.2 909.739 1269.31 875.918 1269.98 876.644C1270.41 877.115 1276.78 885.644 1284.13 895.598C1293.37 908.098 1299.58 915.453 1304.21 919.378C1310.82 924.975 1311.4 925.226 1342.32 936.03C1359.58 942.064 1374.12 947 1374.62 947C1375.13 947 1379.91 942.609 1385.26 937.243L1394.98 927.485L1383.16 897.403C1376.66 880.857 1370.68 866.384 1369.88 865.241C1365.26 858.639 1356.85 851.628 1339.49 839.894C1328.77 832.646 1320 826.4 1320 826.014C1320 824.742 1355.13 756 1355.78 756C1356.13 756 1366.78 759.326 1379.46 763.392C1413.18 774.21 1410.63 774.223 1450.39 763.03C1467.93 758.094 1482.52 753.816 1482.81 753.525C1483.46 752.875 1486.95 731.46 1486.97 728C1486.99 725.489 1480.85 721.255 1438.4 694.484C1426.17 686.775 1419.35 685.613 1389.26 686.11L1365.65 686.5L1358.84 648.029C1355.1 626.871 1352.37 609.247 1352.77 608.865C1353.17 608.483 1363.4 605.151 1375.5 601.46C1408.42 591.418 1407.88 591.809 1432.93 560.079C1443.97 546.097 1453 534.269 1453 533.794C1453 532.787 1442.7 513.34 1440.79 510.737C1439.57 509.065 1437.78 509.047 1406 510.397L1372.5 511.82L1364.5 515.213C1358.79 517.633 1351.34 522.444 1338.5 531.989C1328.6 539.349 1319.79 545.4 1318.92 545.436C1317.27 545.503 1261 492.505 1261 490.88C1261 490.365 1267.14 481.779 1274.65 471.799C1284.03 459.335 1289.33 451.27 1291.6 446.045C1294.83 438.583 1294.91 438.08 1295.46 419.968C1295.77 409.811 1296.27 394.884 1296.56 386.797L1297.1 372.094L1284.44 366.047C1277.47 362.721 1271.42 360 1270.99 360C1270.56 360 1258.57 369.037 1244.35 380.083C1212.11 405.127 1212.84 404.138 1203.02 436.5C1196.84 456.875 1196.17 458.522 1193.92 458.792C1191.64 459.067 1118.94 448.521 1116.25 447.525C1115.3 447.173 1115 441.403 1115.01 423.281C1115.03 388.088 1116 390.915 1092.44 357.547C1079.5 339.214 1072.72 330.451 1071.42 330.347C1070.36 330.262 1063.87 331.17 1057 332.364ZM1100.5 592.033C1081.03 596.127 1066.25 603.892 1052.14 617.435C1039.61 629.466 1031.49 642.772 1026.34 659.712C1023.97 667.528 1023.66 670.214 1023.59 684C1023.51 697.254 1023.83 700.722 1025.8 707.933C1033.09 734.61 1050.71 756.528 1075.26 769.474C1113.57 789.676 1161.09 782.756 1191.57 752.538C1203.34 740.868 1211.36 727.146 1216.21 710.395C1218.21 703.507 1218.49 700.332 1218.45 685.5C1218.41 669.625 1218.22 667.938 1215.6 660C1205.14 628.336 1183.14 605.791 1152.5 595.326C1136.44 589.843 1116.82 588.601 1100.5 592.033ZM949.385 1061C949.385 1067.88 949.545 1070.69 949.74 1067.25C949.936 1063.81 949.936 1058.19 949.74 1054.75C949.545 1051.31 949.385 1054.13 949.385 1061Z" fill="#F3D126"></path>
<path fill-rule="evenodd" clip-rule="evenodd" d="M836 271.672C812.145 272.545 791.058 275.769 781.055 280.072C775.64 282.401 771 286.965 771 289.963C771 293.209 778.745 303.469 787.715 312.107C811.829 335.328 845.043 353.48 933.731 391.905C985.672 414.41 1018.86 430.711 1024.03 436.261C1025.11 437.425 1026 439.342 1026 440.522C1026 441.702 1026.32 442.987 1026.71 443.379C1027.11 443.771 1028.18 446.082 1029.1 448.514C1030.34 451.773 1030.48 453.169 1029.64 453.824C1029.01 454.312 1020.85 458.552 1011.5 463.246C990.905 473.585 987.929 475.095 986 476.184C985.175 476.649 982.7 477.884 980.5 478.926C976.508 480.819 976.497 480.818 974.761 478.661C973.804 477.472 972.426 475.825 971.698 475C970.97 474.175 966.266 467.875 961.244 461C955.532 453.179 949.986 446.815 946.429 444C943.303 441.525 939.973 438.784 939.03 437.908C938.087 437.032 936.457 436.057 935.408 435.742C934.359 435.426 929 433.576 923.5 431.631C901.428 423.824 884.045 417.743 875.5 414.838C870.55 413.155 866.142 411.448 865.705 411.044C864.918 410.317 834.459 440.344 834.544 441.763C834.568 442.168 835.194 443.85 835.935 445.5C838.463 451.133 839.801 454.499 841.319 459.046C842.154 461.546 843.504 465.146 844.318 467.046C845.132 468.946 846.572 472.525 847.519 475C848.465 477.475 849.612 480.4 850.067 481.5C850.522 482.6 852.299 487.1 854.016 491.5C855.733 495.9 857.781 500.978 858.569 502.784C859.356 504.59 860 506.66 860 507.384C860 508.107 863.379 512.533 867.509 517.219C873.561 524.086 877.879 527.657 889.757 535.62C897.864 541.054 905.278 546.281 906.233 547.235C907.882 548.882 907.309 550.275 894.914 574.735C887.733 588.906 881.552 600.808 881.179 601.185C880.547 601.824 857.621 594.893 853.764 592.898C852.809 592.404 851.148 592 850.073 592C848.998 592 847.866 591.592 847.558 591.094C846.42 589.252 822.899 587.434 819.039 588.89C814.367 590.652 773.345 602 771.648 602C770.726 602 769.191 602.395 768.236 602.877C765.347 604.337 759.49 606 757.238 606C756.072 606 754.84 606.45 754.5 607C754.16 607.55 752.84 608 751.566 608C749.775 608 749.078 608.737 748.491 611.25C748.074 613.038 747.768 614.762 747.81 615.082C747.853 615.403 747.248 619.678 746.466 624.582C743.028 646.135 742.848 650.873 745.407 652.378C746.457 652.995 750.128 655.3 753.566 657.5C760.442 661.9 774.298 670.727 783.25 676.411C786.413 678.419 789 680.448 789 680.919C789 681.391 787.313 682.093 785.25 682.48C783.188 682.866 774.658 685.145 766.295 687.545C699.669 706.661 655.406 736.41 644.775 769.218C641.824 778.323 641.816 791.325 644.756 800.675C651.791 823.05 675.689 843.318 707.5 853.889C727.019 860.376 734.903 861.449 763.364 861.493L789.229 861.533L792.364 867.56L795.5 873.587L800 873.327C804.316 873.077 812.919 872.704 843.5 871.441C851.2 871.122 860.9 870.718 865.055 870.543C872.382 870.233 876.238 869.08 887.86 863.724C891.702 861.954 906.149 851.817 917.358 843.026C919.48 841.362 921.955 840.013 922.858 840.029C923.761 840.045 934.068 849.382 945.762 860.779L967.025 881.5L958.538 892.5C947.724 906.517 942 914.68 942 916.084C942 916.693 941.361 918.386 940.581 919.846C935.763 928.857 935.875 927.674 934.499 983.581L933.955 1005.66L944.588 1010.86C954.143 1015.53 955.159 1016.28 954.619 1018.28C952.566 1025.87 951.502 1041.21 951.516 1063C951.53 1083.1 951.841 1088.59 953.252 1093.59C954.197 1096.94 955.17 1101.21 955.413 1103.09C956.114 1108.51 961.539 1122.48 967.995 1135.5C979.634 1158.97 999.89 1176.88 1018.42 1180.07C1032.17 1182.44 1050.23 1178.42 1060.79 1170.64C1068.88 1164.68 1082.5 1149.89 1088.63 1140.41C1096.28 1128.57 1106.83 1107.46 1112.31 1093C1117.92 1078.22 1129.81 1034.67 1133.55 1015.2C1134.36 1010.99 1135.12 1011.61 1142.42 1022.3C1145.49 1026.81 1151.38 1035.19 1155.51 1040.92C1159.63 1046.66 1163 1051.75 1163 1052.24C1163 1053.02 1166.41 1052.8 1175 1051.44C1179.31 1050.76 1184.14 1049.99 1195.4 1048.19C1207.79 1046.22 1207.11 1046.86 1210.44 1034C1211.37 1030.42 1212.55 1026.04 1213.06 1024.25C1216.68 1011.69 1217.62 1008.31 1220.49 997.5C1221.95 992 1223.56 986.038 1224.07 984.25C1226.96 974.14 1226.98 973.85 1225.44 960.534C1225.06 957.252 1222.97 949.602 1220.78 943.534C1218.6 937.465 1216.43 931.375 1215.96 930C1215.5 928.625 1214.43 925.7 1213.6 923.5C1212.77 921.3 1212.07 918.969 1212.04 918.32C1212.02 917.671 1224.13 911.06 1238.96 903.629L1265.92 890.118L1269.71 894.989C1271.8 897.668 1276.82 904.419 1280.89 909.992C1284.95 915.564 1290.99 922.458 1294.31 925.312C1297.63 928.165 1301.32 931.421 1302.52 932.547C1303.71 933.673 1306.89 935.344 1309.59 936.26C1312.29 937.175 1319.68 939.752 1326 941.984C1346.74 949.307 1357.36 953.003 1366.5 956.076C1371.45 957.741 1375.9 959.499 1376.38 959.982C1376.89 960.489 1383.85 954.376 1392.8 945.566L1408.34 930.27L1405.57 923.385C1401.55 913.404 1399.44 908.091 1397.49 903C1396.54 900.525 1395.39 897.6 1394.93 896.5C1394.15 894.617 1389.74 883.393 1386.28 874.5C1385.43 872.3 1384.11 869.082 1383.36 867.349C1382.61 865.616 1382 863.706 1382 863.105C1382 861.364 1368.13 846.106 1363.61 842.872C1361.35 841.254 1358.71 839.271 1357.74 838.465C1356.77 837.659 1355.73 837 1355.43 837C1353.67 837 1335 823.254 1335 821.963C1335 821.106 1337.14 816.339 1339.75 811.369C1342.36 806.399 1348.1 795.072 1352.5 786.199C1358.65 773.792 1360.95 770.058 1362.43 770.033C1364.07 770.005 1381.62 775.388 1388.77 778.11C1392.32 779.462 1401.12 800.165 1424.02 861C1451.4 933.736 1464.71 963.273 1481.5 988.5C1493.21 1006.1 1508.18 1021.96 1514.64 1023.61C1523.4 1025.86 1531.28 1008.72 1535.39 978.5C1540.82 938.641 1539.98 867.236 1533.45 813C1523.44 729.788 1503.48 663.084 1476.47 622.546C1465.7 606.388 1449.84 591.426 1436.23 584.592C1430.1 581.513 1430.11 581.402 1437.9 571.863C1440.43 568.763 1443.5 564.938 1444.72 563.363C1445.93 561.788 1449.44 557.35 1452.52 553.5C1455.59 549.65 1459.09 545.209 1460.3 543.632C1461.51 542.055 1463.51 539.521 1464.74 538.001L1466.98 535.239L1463.88 529.369C1462.18 526.141 1460.38 523.073 1459.89 522.55C1459.4 522.028 1459 520.938 1459 520.129C1459 519.32 1458.38 517.947 1457.63 517.079C1456.88 516.21 1454.09 511.387 1451.43 506.359C1448.77 501.332 1446.12 497.368 1445.55 497.551C1443.46 498.214 1420.77 498.898 1421.39 498.279C1421.74 497.93 1426.76 495.739 1432.55 493.41C1460.39 482.223 1472.93 469.295 1491.47 432.677C1498.2 419.382 1502.72 407.681 1506.8 393C1509.15 384.564 1509.45 381.708 1509.46 367.5C1509.47 353.205 1509.23 350.903 1507.22 345.895C1502.36 333.822 1494.9 326.141 1483.72 321.72C1479.59 320.086 1475.58 319.569 1464.5 319.238C1452.29 318.872 1448.86 319.153 1437.65 321.435C1417.19 325.602 1384.78 337.03 1369 345.644C1351.34 355.284 1335.25 371.256 1316.57 397.703C1312.22 403.865 1308.3 408.686 1307.86 408.415C1307.43 408.145 1307.25 402.429 1307.48 395.712C1308.05 378.647 1308.18 373.046 1308.08 368.922L1308 365.345L1292.25 357.607C1283.59 353.352 1275.08 349.174 1273.33 348.323C1271.59 347.473 1269.68 346.939 1269.09 347.138C1268.01 347.5 1264.53 350.107 1252.6 359.5C1249.11 362.25 1244.06 366.176 1241.38 368.223C1226.29 379.744 1210.34 392.447 1209.26 393.8C1207.74 395.702 1207.95 395.926 1204 388C1199.04 378.04 1193.06 370.236 1183.18 360.83C1172.6 350.766 1162.89 343.749 1146.89 334.604C1096.47 305.792 1009.34 283.022 917 274.525C899.548 272.919 858.263 270.91 849 271.216C845.975 271.316 840.125 271.521 836 271.672ZM1057 332.364L1044.5 334.535L1035.71 366.018L1026.92 397.5L1027.9 406.5C1028.81 414.786 1033.82 430.423 1043.52 455.251L1044.99 459.002L1008.88 477.058C989.027 486.989 972.664 494.976 972.521 494.807C972.379 494.638 966.313 486.4 959.043 476.5C938.206 448.126 939.032 448.706 899.93 434.975C882.693 428.923 868.29 424.089 867.925 424.235C866.032 424.989 848.022 442.69 848.012 443.806C848.005 444.524 853.25 458.564 859.668 475.005C871.085 504.257 871.464 505.042 877.34 511.552C881.827 516.524 888.229 521.468 902.672 531.115C913.302 538.215 922 544.537 922 545.163C922 546.417 888.366 613.001 887.065 614.323C886.619 614.775 875.735 611.78 862.877 607.667C829.079 596.854 831.75 596.835 791.567 608.181C773.93 613.161 759.369 617.351 759.21 617.492C758.577 618.049 754.997 643.551 755.404 644.609C755.642 645.231 768.294 653.742 783.518 663.521C818.551 686.023 816.554 685.403 851.768 684.72C865.115 684.461 876.213 684.536 876.43 684.887C876.892 685.634 890 759.487 890 761.341C890 762.109 881.229 765.275 867.462 769.479C833.879 779.732 834.5 779.29 809.726 810.5C798.812 824.25 789.673 835.964 789.418 836.53C789.163 837.097 791.92 843.06 795.544 849.78L802.133 862L806.816 861.953C809.392 861.927 824.775 861.298 841 860.554L870.5 859.201L878 855.895C882.817 853.772 892.219 847.628 904.281 838.722C914.61 831.094 923.491 824.999 924.015 825.177C925.222 825.586 980.619 878.151 981.266 879.5C981.529 880.05 975.385 888.928 967.613 899.229C956.255 914.283 952.843 919.582 950.226 926.229L946.969 934.5L946.409 967L945.85 999.5L958.293 1005.38C965.136 1008.61 971.219 1011.09 971.81 1010.88C972.4 1010.67 984.385 1001.56 998.443 990.625C1031.87 964.633 1029.12 969.025 1044.67 916.75C1045.83 912.847 1046.49 912 1048.41 912C1051.14 912 1123.91 922.798 1125.75 923.476C1126.7 923.827 1127 929.619 1127.02 947.719C1127.03 967.605 1127.34 972.669 1128.89 978.637C1129.91 982.563 1131.1 986.388 1131.54 987.137C1133.54 990.548 1169.25 1041 1169.67 1041C1172.54 1041 1196.71 1036.69 1197.33 1036.07C1197.79 1035.61 1201.99 1021.57 1206.65 1004.87C1217.56 965.825 1217.58 967.496 1205.82 935.201C1201.14 922.353 1198.08 912.558 1198.6 912.089C1201.2 909.739 1269.31 875.918 1269.98 876.644C1270.41 877.115 1276.78 885.644 1284.13 895.598C1293.37 908.098 1299.58 915.453 1304.21 919.378C1310.82 924.975 1311.4 925.226 1342.32 936.03C1359.58 942.064 1374.12 947 1374.62 947C1375.13 947 1379.91 942.609 1385.26 937.243L1394.98 927.485L1383.16 897.403C1376.66 880.857 1370.68 866.384 1369.88 865.241C1365.26 858.639 1356.85 851.628 1339.49 839.894C1328.77 832.646 1320 826.4 1320 826.014C1320 824.742 1355.13 756 1355.78 756C1356.13 756 1366.78 759.326 1379.46 763.392C1413.18 774.21 1410.63 774.223 1450.39 763.03C1467.93 758.094 1482.52 753.816 1482.81 753.525C1483.46 752.875 1486.95 731.46 1486.97 728C1486.99 725.489 1480.85 721.255 1438.4 694.484C1426.17 686.775 1419.35 685.613 1389.26 686.11L1365.65 686.5L1358.84 648.029C1355.1 626.871 1352.37 609.247 1352.77 608.865C1353.17 608.483 1363.4 605.151 1375.5 601.46C1408.42 591.418 1407.88 591.809 1432.93 560.079C1443.97 546.097 1453 534.269 1453 533.794C1453 532.787 1442.7 513.34 1440.79 510.737C1439.57 509.065 1437.78 509.047 1406 510.397L1372.5 511.82L1364.5 515.213C1358.79 517.633 1351.34 522.444 1338.5 531.989C1328.6 539.349 1319.79 545.4 1318.92 545.436C1317.27 545.503 1261 492.505 1261 490.88C1261 490.365 1267.14 481.779 1274.65 471.799C1284.03 459.335 1289.33 451.27 1291.6 446.045C1294.83 438.583 1294.91 438.08 1295.46 419.968C1295.77 409.811 1296.27 394.884 1296.56 386.797L1297.1 372.094L1284.44 366.047C1277.47 362.721 1271.42 360 1270.99 360C1270.56 360 1258.57 369.037 1244.35 380.083C1212.11 405.127 1212.84 404.138 1203.02 436.5C1196.84 456.875 1196.17 458.522 1193.92 458.792C1191.64 459.067 1118.94 448.521 1116.25 447.525C1115.3 447.173 1115 441.403 1115.01 423.281C1115.03 388.088 1116 390.915 1092.44 357.547C1079.5 339.214 1072.72 330.451 1071.42 330.347C1070.37 330.262 1063.88 331.17 1057 332.364Z" fill="#050608"></path>
</svg><style>@media (prefers-color-scheme: light) { :root { filter: none; } }
@media (prefers-color-scheme: dark) { :root { filter: none; } }
</style></svg>